# xmcd
#
# Track frame offsets: 
#        150
#        9266
#        24944
#        38011
#        47857
#        58463
#        68250
#        78980
#        89779
#        104019
#        114887
#        128271
#        136937
#        150964
#
# Disc length: 2177 seconds
#
# Revision: 2
# Processed by: cddbd v1.5.2PL0 Copyright (c) Steve Scherf et al.
# Submitted via: ExactAudioCopy v0.99pb4
#
DISCID=a2087f0e
DTITLE=Various Artist - @Country Classics CD1
DYEAR=2000
DGENRE=Country
TTITLE0=Frankie Laine - Rawhide
TTITLE1=Billie Jo Spears - Blanket On The Ground
TTITLE2=Kenny Rogers - Ruby (Don't Take Your Love To Town)
TTITLE3=Johnny Cash - Ballad Of A Teenage Queen
TTITLE4=Freddy Fender - A Man Can Cry
TTITLE5=Willie Nelson - Let's Pretend
TTITLE6=Patsy Cline - I Can See An Angel Walkin'
TTITLE7=Carl Belew - Am I That Easy To Forget
TTITLE8=George Jones - A Good Year For The Roses
TTITLE9=Sammi Smith - Help Me Make It Through The Night
TTITLE10=Jonny Tillotson - I'm So Lonesome I Could Cry
TTITLE11=Buck Owens - After The Dance
TTITLE12=Charlie Rich - A Sunday Kind Of Woman
TTITLE13=Gene Autry - Goodnight Irene
EXTD=
EXTT0=
EXTT1=
EXTT2=
EXTT3=
EXTT4=
EXTT5=
EXTT6=
EXTT7=
EXTT8=
EXTT9=
EXTT10=
EXTT11=
EXTT12=
EXTT13=
PLAYORDER=
